<?xml version="1.0" encoding="UTF-8" standalone="no"?>
<svg
   fill="none"
   height="55"
   viewBox="0 0 157 55"
   width="157"
   version="1.1"
   id="svg8"
   sodipodi:docname="logo-2.svg"
   inkscape:version="1.2.2 (732a01da63, 2022-12-09)"
   xmlns:inkscape="http://www.inkscape.org/namespaces/inkscape"
   xmlns:sodipodi="http://sodipodi.sourceforge.net/DTD/sodipodi-0.dtd"
   xmlns="http://www.w3.org/2000/svg"
   xmlns:svg="http://www.w3.org/2000/svg">
  <defs
     id="defs12" />
  <sodipodi:namedview
     id="namedview10"
     pagecolor="#ffffff"
     bordercolor="#000000"
     borderopacity="0.25"
     inkscape:showpageshadow="2"
     inkscape:pageopacity="0.0"
     inkscape:pagecheckerboard="0"
     inkscape:deskcolor="#d1d1d1"
     showgrid="false"
     inkscape:zoom="4.2909091"
     inkscape:cx="23.771186"
     inkscape:cy="27.5"
     inkscape:window-width="1920"
     inkscape:window-height="1137"
     inkscape:window-x="-8"
     inkscape:window-y="-8"
     inkscape:window-maximized="1"
     inkscape:current-layer="svg8" />
  <path
     d="m20 47c11.0457 0 20-8.9543 20-20s-8.9543-20-20-20-20 8.9543-20 20 8.9543 20 20 20z"
     fill="#fff"
     id="path4" />
  <path
     clip-rule="evenodd"
     d="m 11.2311,14.729159 c -1.71175,0 -2.97838,1.4983 -2.92168,3.1231 0.05445,1.5609 -0.01629,3.5827 -0.52522,5.2314 -0.51076,1.6533 -1.37397,2.701 -2.7842,2.8355 v 1.5183 c 1.41023,0.1348 2.27344,1.1819 2.78414,2.8355 0.50899,1.6487 0.57967,3.6704 0.52522,5.2314 -0.0567,1.6246 1.20993,3.1231 2.92194,3.1231 h 17.5399 c 1.7118,0 2.9782,-1.4983 2.9214,-3.1231 -0.0544,-1.561 0.0163,-3.5827 0.5253,-5.2314 0.5107,-1.6536 1.3718,-2.7012 2.7821,-2.8355 v -1.5183 c -1.4102,-0.1348 -2.2713,-1.1819 -2.7821,-2.8355 -0.5091,-1.6485 -0.5797,-3.6705 -0.5253,-5.2314 0.0568,-1.6246 -1.2096,-3.1231 -2.9214,-3.1231 z m 14.1079,14.7109 c 0,2.2374 -1.6688,3.5942 -4.4382,3.5942 h -4.7144 c -0.1348,0 -0.2641,-0.0536 -0.3595,-0.1489 -0.0954,-0.0954 -0.1489,-0.2247 -0.1489,-0.3596 v -11.6949 c 0,-0.1348 0.0535,-0.2642 0.1489,-0.3595 0.0954,-0.0954 0.2247,-0.1489 0.3595,-0.1489 h 4.6875 c 2.3093,0 3.8248,1.2508 3.8248,3.1713 0,1.3479 -1.0195,2.5547 -2.3184,2.7661 v 0.0703 c 1.7681,0.1939 2.9587,1.4185 2.9587,3.1099 z m -4.9523,-7.5058 h -2.688 v 3.7969 h 2.264 c 1.7502,0 2.7152,-0.7048 2.7152,-1.9645 -2e-4,-1.1805 -0.8298,-1.8324 -2.2912,-1.8324 z m -2.688,5.3034 v 4.1842 h 2.7869 c 1.8223,0 2.7875,-0.7312 2.7875,-2.1053 0,-1.3741 -0.9923,-2.0791 -2.9047,-2.0791 z"
     fill="#3056d3"
     fill-rule="evenodd"
     id="path6" />
  <text
     xml:space="preserve"
     style="font-style:normal;font-variant:normal;font-weight:bold;font-stretch:normal;font-size:42.6667px;font-family:Arial;-inkscape-font-specification:'Arial Bold';fill:#3056d3;fill-opacity:1"
     x="55.114407"
     y="41.949154"
     id="text779"><tspan
       sodipodi:role="line"
       id="tspan777"
       x="55.114407"
       y="41.949154">DNA</tspan></text>
</svg>
